<svg id="Layer_1" enable-background="new 0 0 512 512" height="512" viewBox="0 0 512 512" width="512" xmlns="http://www.w3.org/2000/svg"><path d="m480.095 352.43c14.487-14.488 19.331-34.772 12.957-54.261-.864-2.643-3.039-4.646-5.743-5.293-2.707-.646-5.551.157-7.518 2.123l-28.916 28.917-13.878-3.72-3.72-13.879 28.917-28.916c1.966-1.967 2.77-4.812 2.123-7.518-.646-2.704-2.65-4.879-5.293-5.743-19.487-6.374-39.773-1.531-54.263 12.958-7.969 7.969-13.017 18.279-14.795 29.136-26.02-24.509-57.901-41.553-92.372-49.658 29.739-14.41 51.907-42.305 58.154-76.259h1.497c12.245 0 22.207-9.961 22.207-22.206 0-10.366-7.139-19.095-16.759-21.53.002-.253.003-.505.003-.757 0-46.634-28.649-87.805-71.847-104.178-.648-3.83-2.24-7.348-4.737-10.393-7.822-9.539-22.982-12.461-34.323-13.233-.363-.024-.725-.024-1.088 0-11.341.772-26.501 3.695-34.323 13.233-2.498 3.046-4.089 6.563-4.737 10.393-43.197 16.373-71.847 57.545-71.847 104.178 0 .252.001.504.003.757-9.62 2.435-16.759 11.164-16.759 21.53 0 12.244 9.962 22.206 22.207 22.206h1.497c6.243 33.933 28.388 61.815 58.099 76.232-20.066 4.71-39.319 12.481-57.163 23.135l-.703-1.827c-1.188-3.088-4.156-5.126-7.466-5.126h-27.482c-3.31 0-6.277 2.038-7.466 5.126l-5.005 13.003c-6.919 1.98-13.577 4.741-19.879 8.242l-12.742-5.66c-3.025-1.342-6.563-.685-8.904 1.654l-19.434 19.434c-2.34 2.341-2.997 5.88-1.654 8.904l5.659 12.741c-3.502 6.303-6.263 12.962-8.243 19.881l-13.001 5.004c-3.088 1.188-5.126 4.156-5.126 7.466v27.482c0 3.31 2.038 6.277 5.126 7.466l12.999 5.004c1.981 6.923 4.742 13.583 8.243 19.886l-5.657 12.737c-1.343 3.024-.686 6.563 1.655 8.904l19.434 19.433c2.341 2.34 5.879 2.996 8.903 1.654l12.742-5.66c6.302 3.501 12.96 6.262 19.879 8.242l5.005 13.003c1.188 3.088 4.156 5.126 7.466 5.126h27.482c3.31 0 6.277-2.038 7.466-5.126l5.004-12.999c6.923-1.981 13.583-4.742 19.885-8.243l12.738 5.657c3.025 1.344 6.564.686 8.904-1.655l19.433-19.434c2.34-2.34 2.997-5.879 1.654-8.903l-.196-.441h39.722c-1.672 8.703-1.166 17.853 1.718 26.669.864 2.643 3.039 4.646 5.743 5.293 2.707.647 5.551-.157 7.518-2.123l28.916-28.916 13.879 3.719 3.72 13.88-28.916 28.915c-1.967 1.967-2.771 4.812-2.125 7.517s2.651 4.88 5.294 5.744c5.497 1.798 11.123 2.674 16.69 2.674 13.877 0 27.385-5.445 37.57-15.631 12.689-12.69 17.971-30.591 14.652-47.74h85.732c2.27 0 4.433-.964 5.95-2.652s2.246-3.942 2.004-6.199c-2.408-22.501-8.488-44.115-18.079-64.425 16.464 2.417 33.729-2.976 45.71-14.954zm-267.345-303.955 5.853 45.072c.569 4.381 4.572 7.471 8.964 6.903 4.381-.569 7.472-4.582 6.903-8.964l-7.071-54.457c-.396-3.046.515-4.609 1.352-5.63 3.129-3.815 11.516-6.56 22.495-7.377 10.979.817 19.366 3.562 22.495 7.377.837 1.021 1.747 2.583 1.352 5.63l-7.071 54.457c-.568 4.382 2.522 8.395 6.903 8.964.35.045.697.067 1.04.067 3.96 0 7.4-2.939 7.924-6.971l5.853-45.071c34.426 15.111 56.956 49.08 56.956 87.35 0 .027-.001.054-.001.081h-33.809v-50.745c0-4.418-3.582-8-8-8s-8 3.582-8 8v50.745h-91.282v-50.745c0-4.418-3.582-8-8-8s-8 3.582-8 8v50.745h-33.808c0-.027-.001-.054-.001-.081-.003-38.269 22.526-72.239 56.953-87.35zm-73.712 109.637c0-3.422 2.784-6.206 6.207-6.206h2.863.001 206.271 2.864c3.423 0 6.207 2.784 6.207 6.206s-2.784 6.206-6.207 6.206h-203.711c-.003 0-.007 0-.01 0h-8.278c-3.423 0-6.207-2.784-6.207-6.206zm24.03 22.206h176.354c-8.937 40.977-45.367 70.872-88.177 70.872s-79.24-29.895-88.177-70.872zm23.008 273.922-11.465-5.092c-2.409-1.071-5.194-.883-7.442.5-7.142 4.399-14.893 7.612-23.036 9.551-2.566.61-4.667 2.446-5.614 4.908l-4.503 11.696h-16.496l-4.504-11.7c-.947-2.461-3.048-4.298-5.613-4.908-8.14-1.938-15.889-5.15-23.031-9.549-2.248-1.386-5.032-1.568-7.442-.5l-11.47 5.094-11.665-11.664 5.092-11.464c1.07-2.411.884-5.195-.5-7.442-4.399-7.143-7.612-14.894-9.551-23.037-.61-2.566-2.446-4.667-4.908-5.614l-11.696-4.503v-16.496l11.698-4.503c2.461-.947 4.298-3.048 4.908-5.613 1.938-8.14 5.15-15.889 9.55-23.033 1.384-2.247 1.57-5.031.5-7.442l-5.093-11.468 11.665-11.665 11.469 5.094c2.41 1.07 5.194.885 7.442-.5 7.143-4.398 14.892-7.611 23.031-9.549 2.565-.61 4.666-2.447 5.613-4.908l4.504-11.7h16.496l4.504 11.7c.947 2.461 3.048 4.298 5.613 4.908 8.14 1.938 15.889 5.15 23.031 9.549 2.248 1.385 5.033 1.568 7.442.5l11.469-5.094 11.665 11.664-5.092 11.464c-1.07 2.411-.884 5.195.499 7.441 4.4 7.146 7.614 14.897 9.552 23.039.61 2.566 2.446 4.667 4.908 5.614l11.696 4.502v16.496l-11.7 4.504c-2.461.947-4.298 3.048-4.908 5.613-1.938 8.14-5.15 15.889-9.549 23.031-1.384 2.247-1.57 5.031-.5 7.442l5.094 11.469zm82.718-41.173c-3.509 3.51-6.453 7.415-8.808 11.592h-49.115c2.592-5.191 4.706-10.599 6.303-16.18l13.003-5.005c3.088-1.188 5.126-4.156 5.126-7.466v-27.482c0-3.31-2.038-6.277-5.126-7.466l-12.999-5.003c-1.98-6.922-4.742-13.582-8.244-19.887l5.658-12.737c1.343-3.024.686-6.563-1.655-8.904l-19.434-19.433c-2.34-2.34-5.878-2.995-8.903-1.654l-12.742 5.66c-4.663-2.59-9.521-4.773-14.536-6.537 28.436-16.631 60.683-25.376 93.922-25.376 53.516 0 104.242 22.935 139.663 63.005l-69.422 69.422c-18.586-5.473-38.774-.465-52.691 13.451zm72.17 23.558c5.69 13.936 2.49 29.817-8.153 40.461-6.392 6.392-14.649 10.115-23.292 10.814l20.673-20.672c2.021-2.021 2.81-4.967 2.07-7.728l-6.11-22.803c-.74-2.761-2.896-4.917-5.657-5.657l-22.802-6.109c-.685-.184-1.38-.272-2.07-.272-2.094 0-4.137.823-5.657 2.343l-20.672 20.673c.7-8.643 4.424-16.902 10.814-23.294 10.644-10.643 26.521-13.84 40.462-8.152 2.981 1.217 6.402.528 8.681-1.749l76.925-76.925c2.277-2.278 2.967-5.699 1.749-8.681-5.603-13.723-2.326-29.983 8.151-40.461 6.522-6.521 14.721-10.25 23.372-10.893l-20.75 20.749c-2.021 2.021-2.81 4.967-2.07 7.728l6.11 22.802c.74 2.761 2.896 4.917 5.656 5.657l22.801 6.11c2.761.741 5.707-.05 7.729-2.07l20.749-20.75c-.643 8.65-4.371 16.85-10.892 23.369-10.479 10.479-26.738 13.758-40.46 8.153-2.983-1.217-6.403-.527-8.682 1.749l-76.926 76.926c-2.277 2.279-2.967 5.7-1.749 8.682zm27.661-11.966 51.024-51.024c7.709 16.186 12.991 33.277 15.747 51.024zm-242.857-98.32c-30.839 0-55.929 25.09-55.929 55.929 0 30.84 25.09 55.93 55.929 55.93s55.929-25.09 55.929-55.93c-.001-30.839-25.091-55.929-55.929-55.929zm0 95.858c-22.017 0-39.929-17.912-39.929-39.93 0-22.017 17.912-39.929 39.929-39.929s39.929 17.912 39.929 39.929c-.001 22.018-17.913 39.93-39.929 39.93z"/></svg>